#Comment line ignore any data following # character 
#Hierarchical Translation and Rotation (.htr) file 
[Header]	
#Header keywords are followed by a single value 
FileType HTR		#Single word string
DataType HTRS		#Translation followed by rotation and scale data
FileVersion 1		#integer
NumSegments 84		#integer
NumFrames 2		#integer
DataFrameRate 30		#integer, data frame rate in this file
EulerRotationOrder ZYX
CalibrationUnits mm
RotationUnits Degrees
GlobalAxisofGravity Y
BoneLengthAxis Y
ScaleFactor 1.00
[SegmentNames&Hierarchy]
#CHILD	PARENT
MASTER GLOBAL
root MASTER
chest root
L_mid_tent01 root
R_mid_tent01 root
spine01 root
Bip01_Neck chest
L_humerus chest
R_humerus chest
weapon_bone chest
Bip01_Head Bip01_Neck
eye_left_bone Bip01_Head
eye_right_bone Bip01_Head
L_forearm L_humerus
L_front_hand L_forearm
L_weapon_bone L_forearm
L_front_hand01_01 L_front_hand
L_front_hand02_01 L_front_hand
L_front_hand03_01 L_front_hand
L_front_hand01_02 L_front_hand01_01
L_front_hand02_02 L_front_hand02_01
L_front_hand03_02 L_front_hand03_01
R_forearm R_humerus
R_front_hand R_forearm
R_weapon_bone R_forearm
R_front_hand01_01 R_front_hand
R_front_hand02_01 R_front_hand
R_front_hand03_01 R_front_hand
R_front_hand01_02 R_front_hand01_01
R_front_hand02_02 R_front_hand02_01
R_front_hand03_02 R_front_hand03_01
null_rope01_connect L_mid_tent01
Rope1_Seg01 null_rope01_connect
Rope1_Seg02 Rope1_Seg01
Rope1_Seg03 Rope1_Seg02
Rope1_Seg04 Rope1_Seg03
Rope1_Seg05 Rope1_Seg04
Rope1_Seg06 Rope1_Seg05
Rope1_Seg07 Rope1_Seg06
Rope1_Seg09 Rope1_Seg07
L_mid_hand01 Rope1_Seg09
L_mid_hand02 Rope1_Seg09
L_mid_hand03 Rope1_Seg09
null_rope02_connect R_mid_tent01
Rope2_Seg01 null_rope02_connect
Rope2_Seg02 Rope2_Seg01
Rope2_Seg03 Rope2_Seg02
Rope2_Seg04 Rope2_Seg03
Rope2_Seg05 Rope2_Seg04
Rope2_Seg06 Rope2_Seg05
Rope2_Seg07 Rope2_Seg06
Rope2_Seg09 Rope2_Seg07
R_mid_hand01 Rope2_Seg09
R_mid_hand02 Rope2_Seg09
R_mid_hand03 Rope2_Seg09
spine02 spine01
spine03 spine02
pelvis spine03
null_rope03_connect pelvis
null_rope04_connect pelvis
Rope3_Seg01 null_rope03_connect
Rope3_Seg02 Rope3_Seg01
Rope3_Seg03 Rope3_Seg02
Rope3_Seg04 Rope3_Seg03
Rope3_Seg05 Rope3_Seg04
Rope3_Seg06 Rope3_Seg05
Rope3_Seg07 Rope3_Seg06
Rope3_Seg08 Rope3_Seg07
Rope3_Seg09 Rope3_Seg08
R_rear_hand01 Rope3_Seg09
R_rear_hand02 Rope3_Seg09
R_rear_hand03 Rope3_Seg09
Rope4_Seg01 null_rope04_connect
Rope4_Seg02 Rope4_Seg01
Rope4_Seg03 Rope4_Seg02
Rope4_Seg04 Rope4_Seg03
Rope4_Seg05 Rope4_Seg04
Rope4_Seg06 Rope4_Seg05
Rope4_Seg07 Rope4_Seg06
Rope4_Seg08 Rope4_Seg07
Rope4_Seg09 Rope4_Seg08
L_rear_hand01 Rope4_Seg09
L_rear_hand02 Rope4_Seg09
L_rear_hand03 Rope4_Seg09
[BasePosition]
#SegmentName Tx, Ty, Tz, Rx, Ry, Rz, BoneLength
MASTER 0.000000 0.000000 0.000000 -90.000000 0.000000 0.000000 10.000000 
root 0.000000 0.000000 0.000000 0.000000 0.000000 0.000000 10.000000 
chest 0.000000 0.000000 0.000000 0.000000 0.000000 0.000000 10.000000 
L_mid_tent01 0.000000 0.000000 0.000000 0.000000 0.000000 0.000000 10.000000 
R_mid_tent01 0.000000 0.000000 0.000000 0.000000 0.000000 0.000000 10.000000 
spine01 0.000000 0.000000 0.000000 0.000000 0.000000 0.000000 10.000000 
Bip01_Neck 0.000000 0.000000 0.000000 0.000000 0.000000 0.000000 10.000000 
L_humerus 0.000000 0.000000 0.000000 0.000000 0.000000 0.000000 10.000000 
R_humerus 0.000000 0.000000 0.000000 0.000000 0.000000 0.000000 10.000000 
weapon_bone 0.000000 0.000000 0.000000 0.000000 0.000000 0.000000 10.000000 
Bip01_Head 0.000000 0.000000 0.000000 0.000000 0.000000 0.000000 10.000000 
eye_left_bone 0.000000 0.000000 0.000000 0.000000 0.000000 0.000000 10.000000 
eye_right_bone 0.000000 0.000000 0.000000 0.000000 0.000000 0.000000 10.000000 
L_forearm 0.000000 0.000000 0.000000 0.000000 0.000000 0.000000 10.000000 
L_front_hand 0.000000 0.000000 0.000000 0.000000 0.000000 0.000000 10.000000 
L_weapon_bone 0.000000 0.000000 0.000000 0.000000 0.000000 0.000000 10.000000 
L_front_hand01_01 0.000000 0.000000 0.000000 0.000000 0.000000 0.000000 10.000000 
L_front_hand02_01 0.000000 0.000000 0.000000 0.000000 0.000000 0.000000 10.000000 
L_front_hand03_01 0.000000 0.000000 0.000000 0.000000 0.000000 0.000000 10.000000 
L_front_hand01_02 0.000000 0.000000 0.000000 0.000000 0.000000 0.000000 10.000000 
L_front_hand02_02 0.000000 0.000000 0.000000 0.000000 0.000000 0.000000 10.000000 
L_front_hand03_02 0.000000 0.000000 0.000000 0.000000 0.000000 0.000000 10.000000 
R_forearm 0.000000 0.000000 0.000000 0.000000 0.000000 0.000000 10.000000 
R_front_hand 0.000000 0.000000 0.000000 0.000000 0.000000 0.000000 10.000000 
R_weapon_bone 0.000000 0.000000 0.000000 0.000000 0.000000 0.000000 10.000000 
R_front_hand01_01 0.000000 0.000000 0.000000 0.000000 0.000000 0.000000 10.000000 
R_front_hand02_01 0.000000 0.000000 0.000000 0.000000 0.000000 0.000000 10.000000 
R_front_hand03_01 0.000000 0.000000 0.000000 0.000000 0.000000 0.000000 10.000000 
R_front_hand01_02 0.000000 0.000000 0.000000 0.000000 0.000000 0.000000 10.000000 
R_front_hand02_02 0.000000 0.000000 0.000000 0.000000 0.000000 0.000000 10.000000 
R_front_hand03_02 0.000000 0.000000 0.000000 0.000000 0.000000 0.000000 10.000000 
null_rope01_connect 0.000000 0.000000 0.000000 0.000000 0.000000 0.000000 10.000000 
Rope1_Seg01 0.000000 0.000000 0.000000 0.000000 0.000000 0.000000 10.000000 
Rope1_Seg02 0.000000 0.000000 0.000000 0.000000 0.000000 0.000000 10.000000 
Rope1_Seg03 0.000000 0.000000 0.000000 0.000000 0.000000 0.000000 10.000000 
Rope1_Seg04 0.000000 0.000000 0.000000 0.000000 0.000000 0.000000 10.000000 
Rope1_Seg05 0.000000 0.000000 0.000000 0.000000 0.000000 0.000000 10.000000 
Rope1_Seg06 0.000000 0.000000 0.000000 0.000000 0.000000 0.000000 10.000000 
Rope1_Seg07 0.000000 0.000000 0.000000 0.000000 0.000000 0.000000 10.000000 
Rope1_Seg09 0.000000 0.000000 0.000000 0.000000 0.000000 0.000000 10.000000 
L_mid_hand01 0.000000 0.000000 0.000000 0.000000 0.000000 0.000000 10.000000 
L_mid_hand02 0.000000 0.000000 0.000000 0.000000 0.000000 0.000000 10.000000 
L_mid_hand03 0.000000 0.000000 0.000000 0.000000 0.000000 0.000000 10.000000 
null_rope02_connect 0.000000 0.000000 0.000000 0.000000 0.000000 0.000000 10.000000 
Rope2_Seg01 0.000000 0.000000 0.000000 0.000000 0.000000 0.000000 10.000000 
Rope2_Seg02 0.000000 0.000000 0.000000 0.000000 0.000000 0.000000 10.000000 
Rope2_Seg03 0.000000 0.000000 0.000000 0.000000 0.000000 0.000000 10.000000 
Rope2_Seg04 0.000000 0.000000 0.000000 0.000000 0.000000 0.000000 10.000000 
Rope2_Seg05 0.000000 0.000000 0.000000 0.000000 0.000000 0.000000 10.000000 
Rope2_Seg06 0.000000 0.000000 0.000000 0.000000 0.000000 0.000000 10.000000 
Rope2_Seg07 0.000000 0.000000 0.000000 0.000000 0.000000 0.000000 10.000000 
Rope2_Seg09 0.000000 0.000000 0.000000 0.000000 0.000000 0.000000 10.000000 
R_mid_hand01 0.000000 0.000000 0.000000 0.000000 0.000000 0.000000 10.000000 
R_mid_hand02 0.000000 0.000000 0.000000 0.000000 0.000000 0.000000 10.000000 
R_mid_hand03 0.000000 0.000000 0.000000 0.000000 0.000000 0.000000 10.000000 
spine02 0.000000 0.000000 0.000000 0.000000 0.000000 0.000000 10.000000 
spine03 0.000000 0.000000 0.000000 0.000000 0.000000 0.000000 10.000000 
pelvis 0.000000 0.000000 0.000000 0.000000 0.000000 0.000000 10.000000 
null_rope03_connect 0.000000 0.000000 0.000000 0.000000 0.000000 0.000000 10.000000 
null_rope04_connect 0.000000 0.000000 0.000000 0.000000 0.000000 0.000000 10.000000 
Rope3_Seg01 0.000000 0.000000 0.000000 0.000000 0.000000 0.000000 10.000000 
Rope3_Seg02 0.000000 0.000000 0.000000 0.000000 0.000000 0.000000 10.000000 
Rope3_Seg03 0.000000 0.000000 0.000000 0.000000 0.000000 0.000000 10.000000 
Rope3_Seg04 0.000000 0.000000 0.000000 0.000000 0.000000 0.000000 10.000000 
Rope3_Seg05 0.000000 0.000000 0.000000 0.000000 0.000000 0.000000 10.000000 
Rope3_Seg06 0.000000 0.000000 0.000000 0.000000 0.000000 0.000000 10.000000 
Rope3_Seg07 0.000000 0.000000 0.000000 0.000000 0.000000 0.000000 10.000000 
Rope3_Seg08 0.000000 0.000000 0.000000 0.000000 0.000000 0.000000 10.000000 
Rope3_Seg09 0.000000 0.000000 0.000000 0.000000 0.000000 0.000000 10.000000 
R_rear_hand01 0.000000 0.000000 0.000000 0.000000 0.000000 0.000000 10.000000 
R_rear_hand02 0.000000 0.000000 0.000000 0.000000 0.000000 0.000000 10.000000 
R_rear_hand03 0.000000 0.000000 0.000000 0.000000 0.000000 0.000000 10.000000 
Rope4_Seg01 0.000000 0.000000 0.000000 0.000000 0.000000 0.000000 10.000000 
Rope4_Seg02 0.000000 0.000000 0.000000 0.000000 0.000000 0.000000 10.000000 
Rope4_Seg03 0.000000 0.000000 0.000000 0.000000 0.000000 0.000000 10.000000 
Rope4_Seg04 0.000000 0.000000 0.000000 0.000000 0.000000 0.000000 10.000000 
Rope4_Seg05 0.000000 0.000000 0.000000 0.000000 0.000000 0.000000 10.000000 
Rope4_Seg06 0.000000 0.000000 0.000000 0.000000 0.000000 0.000000 10.000000 
Rope4_Seg07 0.000000 0.000000 0.000000 0.000000 0.000000 0.000000 10.000000 
Rope4_Seg08 0.000000 0.000000 0.000000 0.000000 0.000000 0.000000 10.000000 
Rope4_Seg09 0.000000 0.000000 0.000000 0.000000 0.000000 0.000000 10.000000 
L_rear_hand01 0.000000 0.000000 0.000000 0.000000 0.000000 0.000000 10.000000 
L_rear_hand02 0.000000 0.000000 0.000000 0.000000 0.000000 0.000000 10.000000 
L_rear_hand03 0.000000 0.000000 0.000000 0.000000 0.000000 0.000000 10.000000 
#Beginning of Data. Separated by tabs
#Fr	Tx	Ty	Tz	Rx	Ry	Rz	SF
[MASTER]
10 -0.000183 1276.774658 0.000000 0.001660 0.001660 0.001660 1276.774658
11 -0.000204 1418.638306 0.000000 0.001660 0.001660 0.001660 1418.638428
[root]
10 -122.746590 212.379257 1580.391479 -88.502037 -28.788504 -85.082932 1599.315186
11 -169.449280 208.189774 1590.963867 -89.108818 -27.469643 -85.615662 1613.450317
[chest]
10 -84.512650 -34.090519 0.000000 -2.244095 14.798023 171.349289 91.129311
11 -84.512650 -34.090519 0.000000 -2.244390 15.117902 171.309799 91.129311
[L_mid_tent01]
10 27.435970 22.099236 -250.794922 29.938288 52.214699 104.483070 253.257187
11 27.451134 22.090549 -250.892365 30.047625 52.980110 104.548378 253.354568
[R_mid_tent01]
10 23.228794 24.509907 226.238495 175.826370 -28.208303 55.449261 228.744751
11 23.228794 24.509907 226.238495 175.481247 -27.948204 55.509987 228.744751
[spine01]
10 -0.361383 -0.195265 0.000000 0.001869 0.001420 15.534141 0.410763
11 -0.361383 -0.195265 0.000000 0.001869 0.001420 15.534141 0.410763
[Bip01_Neck]
10 165.484543 71.581718 0.000119 175.896118 1.177290 24.871183 180.302734
11 165.484543 71.581718 0.000119 175.896118 1.177290 24.871183 180.302734
[L_humerus]
10 -13.983130 -135.272980 -120.471481 -172.444839 38.154541 -89.707764 181.680161
11 -13.983130 -135.272980 -120.471481 -171.137268 38.744270 -88.200844 181.680161
[R_humerus]
10 -13.983309 -135.273102 125.287651 -168.981689 -35.777836 -97.759285 184.909012
11 -13.983309 -135.273102 125.287651 -170.020432 -36.527092 -96.357964 184.909012
[weapon_bone]
10 235.964890 -300.705902 0.000000 0.000000 -89.951546 -128.212341 382.234833
11 235.964890 -300.705902 0.000000 0.000000 -89.951546 -128.212341 382.234833
[Bip01_Head]
10 186.019882 185.150024 15.270405 1.072246 4.616636 -50.552670 262.901337
11 186.019882 185.150040 15.270404 1.072246 4.616636 -50.552670 262.901367
[eye_left_bone]
10 -24.626970 125.451866 -64.772606 0.000000 -90.000000 -99.840431 143.318359
11 -24.626970 125.451866 -64.772606 0.000000 -90.000000 -99.840431 143.318359
[eye_right_bone]
10 -24.626970 125.451866 64.327362 0.000000 -89.972023 80.159386 143.117676
11 -24.626970 125.451866 64.327362 0.000000 -89.960434 80.159386 143.117676
[L_forearm]
10 322.776093 0.000000 -0.000119 0.000417 0.002310 -69.545227 322.776093
11 322.776093 0.000000 -0.000119 0.000428 0.002308 -69.006599 322.776093
[L_front_hand]
10 241.149185 -0.042021 -3.300071 -178.667953 -1.835447 -27.422350 241.171753
11 241.149185 -0.042021 -3.300071 -178.667953 -1.835447 -27.422350 241.171753
[L_weapon_bone]
10 156.183838 0.000000 0.000000 0.000014 0.000007 0.000001 156.183838
11 156.183838 0.000000 0.000000 0.000014 0.000007 0.000001 156.183838
[L_front_hand01_01]
10 86.095154 20.947098 -0.655860 -0.366594 -0.477154 75.385574 88.609184
11 86.095154 20.947098 -0.655860 -0.366594 -0.477154 75.385574 88.609184
[L_front_hand02_01]
10 86.935165 -11.437475 24.513514 154.403519 -59.888931 -61.371990 91.046425
11 86.935165 -11.437475 24.513514 154.403519 -59.888931 -61.371990 91.046425
[L_front_hand03_01]
10 86.637497 -14.123976 -20.424902 -153.913864 58.118134 -62.702885 90.126129
11 86.637497 -14.123976 -20.424902 -153.913849 58.118122 -62.702866 90.126129
[L_front_hand01_02]
10 71.020905 -0.000179 0.000030 0.000334 -0.002323 -106.379684 71.020905
11 71.020905 -0.000179 0.000030 0.000334 -0.002323 -106.379684 71.020905
[L_front_hand02_02]
10 71.020927 -0.000119 0.000060 0.000334 -0.002323 -106.379684 71.020927
11 71.020927 -0.000119 0.000060 0.000334 -0.002323 -106.379684 71.020927
[L_front_hand03_02]
10 71.020905 -0.000060 0.000060 0.000334 -0.002323 -106.379684 71.020905
11 71.020905 -0.000060 0.000060 0.000334 -0.002323 -106.379684 71.020905
[R_forearm]
10 322.776428 -0.000060 0.000030 0.159268 -0.136205 -50.626434 322.776428
11 322.776428 -0.000060 0.000030 0.159956 -0.138868 -50.320461 322.776428
[R_front_hand]
10 238.847015 -0.006795 2.210259 -1.531694 0.790216 -51.443054 238.857239
11 238.847015 -0.006795 2.210259 -1.531694 0.790216 -51.443054 238.857239
[R_weapon_bone]
10 155.664093 0.002503 -0.000030 0.003487 0.001180 -90.988930 155.664078
11 155.664093 0.002503 -0.000030 0.003487 0.001180 -90.988930 155.664078
[R_front_hand01_01]
10 87.624611 14.231146 22.918642 -154.633499 -59.950619 61.746044 91.683487
11 87.624611 14.231146 22.918642 -154.633499 -59.950619 61.746044 91.683487
[R_front_hand02_01]
10 89.356956 14.367283 -19.491137 154.602676 58.302864 63.744389 92.579636
11 89.356956 14.367283 -19.491137 154.602661 58.302849 63.744389 92.579636
[R_front_hand03_01]
10 87.286232 -22.307278 -0.143439 0.162155 -0.423168 -75.767921 90.091743
11 87.286232 -22.307278 -0.143439 0.162155 -0.423168 -75.767921 90.091743
[R_front_hand01_02]
10 71.020905 0.000060 0.000119 0.002323 -0.000334 106.381714 71.020905
11 71.020905 0.000060 0.000119 0.002323 -0.000334 106.381714 71.020905
[R_front_hand02_02]
10 71.020844 -0.000030 -0.000119 0.002323 -0.000334 106.381714 71.020836
11 71.020844 -0.000030 -0.000119 0.002323 -0.000334 106.381714 71.020836
[R_front_hand03_02]
10 71.020905 0.000000 0.000030 0.002323 -0.000334 106.381714 71.020905
11 71.020905 0.000000 0.000030 0.002323 -0.000334 106.381714 71.020905
[null_rope01_connect]
10 328.732483 0.000000 -0.000238 -131.517181 -37.207581 162.098465 328.732483
11 328.732483 0.000000 -0.000238 -132.922211 -35.499062 162.461334 328.732483
[Rope1_Seg01]
10 4.257523 -6.055745 -2.990985 108.597389 12.735617 127.712219 7.984018
11 4.117657 -6.097869 -3.141483 105.622772 18.316580 123.329353 8.000502
[Rope1_Seg02]
10 139.999863 -0.000179 0.000000 0.425378 0.171700 2.168669 139.999863
11 139.999863 -0.000179 0.000000 1.399031 2.189251 4.472003 139.999863
[Rope1_Seg03]
10 139.999924 0.000060 -0.000060 0.220103 0.088660 1.060234 139.999924
11 139.999924 0.000060 -0.000060 0.725333 1.120545 2.170466 139.999924
[Rope1_Seg04]
10 139.999924 -0.000060 -0.000119 0.061086 0.031188 0.283581 139.999924
11 139.999924 -0.000060 -0.000119 0.201107 0.317074 0.585888 139.999924
[Rope1_Seg05]
10 139.999832 0.000119 -0.000060 -0.028014 -0.003321 -0.141768 139.999832
11 139.999832 0.000119 -0.000060 -0.092019 -0.137092 -0.275216 139.999832
[Rope1_Seg06]
10 139.999954 0.000119 -0.000060 -0.018119 -0.003298 -0.077468 139.999954
11 139.999954 0.000119 -0.000060 -0.052688 -0.072630 -0.156631 139.999954
[Rope1_Seg07]
10 139.999985 0.000060 0.000000 0.005616 0.002649 -0.004274 139.999985
11 139.999985 0.000060 0.000000 0.006582 0.001633 -0.003311 139.999985
[Rope1_Seg09]
10 121.602913 0.000119 -0.000089 -89.793175 -1.359789 0.847147 121.602913
11 121.602913 0.000119 -0.000089 -89.793175 -1.359789 0.847147 121.602913
[L_mid_hand01]
10 103.859421 1.038730 8.195221 116.294914 -23.111713 -31.758034 104.187431
11 103.859421 1.038730 8.195221 116.294914 -23.111719 -31.758038 104.187431
[L_mid_hand02]
10 105.572853 -4.139662 -10.864139 -144.219833 17.447468 -35.360519 106.211075
11 105.572853 -4.139662 -10.864139 -144.219833 17.447468 -35.360519 106.211075
[L_mid_hand03]
10 104.641464 17.579376 -3.913581 -17.830780 17.153103 31.982925 106.179977
11 104.641464 17.579376 -3.913581 -17.830778 17.153101 31.982925 106.179977
[null_rope02_connect]
10 328.732849 0.000179 -0.000119 -107.199226 55.736118 8.594594 328.732849
11 328.732849 0.000179 -0.000119 -107.273453 56.922382 9.868595 328.732849
[Rope2_Seg01]
10 0.000072 0.000180 0.000009 -50.795010 16.194448 33.258297 0.000194
11 0.000071 0.000183 0.000010 -50.064301 15.760407 36.307064 0.000197
[Rope2_Seg02]
10 139.999741 -0.000060 -0.000119 -1.784232 -0.699347 6.842596 139.999756
11 139.999741 -0.000060 -0.000119 -1.459150 -0.329764 6.647258 139.999756
[Rope2_Seg03]
10 140.000107 0.000030 0.000000 -2.353251 -1.712798 12.946863 140.000107
11 140.000107 0.000030 0.000000 -1.852475 -0.934288 12.541492 140.000107
[Rope2_Seg04]
10 139.999802 0.000000 -0.000060 -0.923723 -5.526685 29.535667 139.999802
11 139.999802 0.000000 -0.000060 -0.135090 -3.474348 29.150814 139.999802
[Rope2_Seg05]
10 139.999985 -0.000060 0.000119 8.426834 -5.113485 33.218788 139.999985
11 139.999985 -0.000060 0.000119 8.782062 -3.109298 34.381443 139.999985
[Rope2_Seg06]
10 139.999893 -0.000030 -0.000119 13.083333 3.659882 22.766401 139.999893
11 139.999893 -0.000030 -0.000119 12.300136 4.500599 23.074198 139.999893
[Rope2_Seg07]
10 139.999893 0.000060 -0.000060 10.990130 6.292754 16.537176 139.999893
11 139.999893 0.000060 -0.000060 10.266105 6.924941 16.941574 139.999893
[Rope2_Seg09]
10 121.338966 0.000089 -0.000060 33.793236 -1.359788 -0.847141 121.338966
11 121.338966 0.000089 -0.000060 33.793236 -1.359788 -0.847141 121.338966
[R_mid_hand01]
10 104.680779 11.144459 -10.335981 -41.523792 25.424656 28.595957 105.778534
11 104.680779 11.144459 -10.335981 -41.523792 25.424656 28.595957 105.778534
[R_mid_hand02]
10 104.070427 2.443552 8.231699 72.847389 -32.746803 10.013901 104.424065
11 104.070427 2.443552 8.231699 72.847389 -32.746803 10.013901 104.424065
[R_mid_hand03]
10 106.028137 -11.221827 -5.996406 -167.901306 10.259192 -37.009720 106.788818
11 106.028137 -11.221827 -5.996406 -167.901306 10.259192 -37.009720 106.788818
[spine02]
10 129.756927 0.001550 0.000119 -0.245322 -4.052060 -4.355547 129.756927
11 129.756927 0.001550 0.000119 -0.245322 -4.052060 -4.355547 129.756927
[spine03]
10 78.613815 0.087280 -4.898808 0.369659 4.260735 -4.885721 78.766350
11 78.613823 0.087280 -4.898808 0.369659 4.260735 -4.885721 78.766357
[pelvis]
10 169.435242 0.051022 0.000000 -0.010007 -0.191417 -1.897554 169.435257
11 169.435242 0.051022 0.000000 -0.010007 -0.191417 -1.897554 169.435257
[null_rope03_connect]
10 -1.257226 -2.466202 137.391083 73.330757 -83.942947 40.992054 137.418976
11 -1.257226 -2.466202 137.391083 76.143509 -84.901688 36.888206 137.418976
[null_rope04_connect]
10 -1.259640 -2.480268 -137.844437 73.330757 -83.942947 40.992054 137.872513
11 -1.259640 -2.480268 -137.844437 76.143509 -84.901688 36.888206 137.872513
[Rope3_Seg01]
10 -0.000009 0.000037 -0.000018 142.453094 -51.498379 0.479942 0.000042
11 -0.000009 0.000041 -0.000020 139.437454 -50.408707 2.643441 0.000046
[Rope3_Seg02]
10 139.999924 -0.000119 0.000060 -5.254920 1.347383 -4.467853 139.999924
11 139.999924 -0.000119 0.000060 -5.645806 1.495888 -4.366588 139.999924
[Rope3_Seg03]
10 139.999924 -0.000119 0.000119 -10.219793 2.703612 -6.715306 139.999924
11 139.999924 -0.000119 0.000119 -10.620914 2.914021 -6.398446 139.999924
[Rope3_Seg04]
10 139.999924 0.000119 0.000000 -23.153362 6.602554 -10.651087 139.999924
11 139.999924 0.000119 0.000000 -22.476463 6.733632 -9.709209 139.999924
[Rope3_Seg05]
10 139.999924 -0.000238 0.000060 -47.872112 23.590658 -17.634338 139.999924
11 139.999924 -0.000238 0.000060 -44.188377 22.525885 -15.282402 139.999924
[Rope3_Seg06]
10 139.999893 -0.000119 -0.000060 -13.503798 24.248129 3.813499 139.999893
11 139.999893 -0.000119 -0.000060 -13.801162 23.181402 3.292007 139.999893
[Rope3_Seg07]
10 139.999771 0.000060 -0.000119 -1.588635 4.876198 0.785531 139.999771
11 139.999771 0.000060 -0.000119 -1.459721 3.954357 0.386775 139.999771
[Rope3_Seg08]
10 139.999985 -0.000060 0.000000 -1.261589 5.645650 1.598428 139.999985
11 139.999985 -0.000060 0.000000 -1.307105 4.889286 1.233011 139.999985
[Rope3_Seg09]
10 90.185997 -0.000179 -0.000060 89.793228 -1.359877 -0.847183 90.185997
11 90.185997 -0.000179 -0.000060 89.793228 -1.359877 -0.847183 90.185997
[R_rear_hand01]
10 103.366196 -6.073594 -10.757982 -158.627975 33.644127 -23.327253 104.101845
11 103.366196 -6.073594 -10.757982 -158.627991 33.644135 -23.327261 104.101845
[R_rear_hand02]
10 100.509819 12.039542 -7.992327 -36.327797 26.496241 23.332451 101.543350
11 100.509819 12.039542 -7.992327 -36.327797 26.496241 23.332451 101.543350
[R_rear_hand03]
10 101.539970 5.215704 5.435467 73.054977 -27.152536 27.950705 101.819031
11 101.539970 5.215704 5.435467 73.054993 -27.152542 27.950705 101.819031
[Rope4_Seg01]
10 -0.000037 0.000036 0.000143 80.747238 -19.733774 178.194977 0.000152
11 -0.000037 0.000036 0.000142 79.521523 -20.066658 179.809662 0.000151
[Rope4_Seg02]
10 139.999985 0.000060 0.000119 112.030373 -11.016510 -3.458250 139.999985
11 139.999985 0.000060 0.000119 77.014656 -11.240935 -3.727095 139.999985
[Rope4_Seg03]
10 139.999924 0.000000 -0.000238 51.025455 1.227679 13.835750 139.999924
11 139.999924 0.000000 -0.000238 85.365685 -7.377666 12.515590 139.999924
[Rope4_Seg04]
10 139.999985 0.000000 0.000119 -1.528397 12.332925 5.146657 139.999985
11 139.999985 0.000000 0.000119 -0.919122 12.780358 5.699158 139.999985
[Rope4_Seg05]
10 139.999802 -0.000060 -0.000119 5.911614 9.028534 9.250272 139.999802
11 139.999802 -0.000060 -0.000119 5.916961 9.363423 9.444635 139.999802
[Rope4_Seg06]
10 139.999924 0.000000 0.000060 9.089637 8.774318 15.630222 139.999924
11 139.999924 0.000000 0.000060 8.995090 9.397088 15.973934 139.999924
[Rope4_Seg07]
10 139.999802 0.000000 0.000000 4.028481 9.265092 11.731663 139.999802
11 139.999802 0.000000 0.000000 3.983059 9.887844 12.159258 139.999802
[Rope4_Seg08]
10 139.999924 0.000000 0.000119 -0.413400 5.934010 5.955485 139.999924
11 139.999924 0.000000 0.000119 -0.479672 6.216287 6.110385 139.999924
[Rope4_Seg09]
10 90.185791 0.000060 0.000060 -135.617828 2.228885 0.850567 90.185791
11 90.185791 0.000060 0.000060 -135.617828 2.228885 0.850567 90.185791
[L_rear_hand01]
10 101.696655 -8.392275 -7.654577 -33.685818 -15.212530 149.017090 102.329041
11 101.696655 -8.392275 -7.654577 -33.685818 -15.212530 149.017090 102.329041
[L_rear_hand02]
10 102.726799 -1.568258 5.773216 83.407906 30.330435 172.796509 102.900848
11 102.726799 -1.568258 5.773216 83.407906 30.330435 172.796509 102.900848
[L_rear_hand03]
10 104.552910 9.721220 -10.420293 -160.801239 -15.606593 -150.211823 105.519653
11 104.552910 9.721220 -10.420293 -160.801239 -15.606595 -150.211823 105.519653
